<!-- Спрайт иконок -->
<svg display="none" xmlns="http://www.w3.org/2000/svg">
    <symbol id="logo-icon"  viewBox="0 0 64 64">
        <g clip-path="url(#clip0)">
            <path  d="M42.7978 33.919C39.918 29.4263 35.0132 26.7437 29.6772 26.7437C24.3413 26.7437 19.4365 29.4263 16.5571 33.919L9.61767 44.7446C8.4663 46.5405 7.93505 48.6157 8.08105 50.7442C8.22705 52.8731 9.0371 54.8555 10.4233 56.4785C11.8105 58.1001 13.6435 59.2085 15.7241 59.6841C17.8047 60.1597 19.9375 59.9566 21.8916 59.0977L22.0225 59.0396C26.9394 56.9214 32.5581 56.9409 37.4624 59.0977C38.7275 59.6538 40.0679 59.9351 41.4204 59.9351C42.1558 59.9351 42.8955 59.8516 43.6284 59.6846C45.709 59.2095 47.542 58.1011 48.9297 56.479C50.3164 54.8574 51.1269 52.8745 51.2734 50.7451C51.4199 48.6157 50.8887 46.541 49.7373 44.7442L42.7978 33.919Z" />
            <path d="M11.4868 33.9048C13.5513 33.1118 15.1196 31.4483 15.9028 29.2202C16.6484 27.1001 16.5874 24.7066 15.7305 22.48C14.873 20.2549 13.3135 18.4385 11.3389 17.3648C9.26465 16.2373 6.98584 16.0537 4.9248 16.8482C0.778319 18.4424 -1.12451 23.5664 0.683593 28.273C2.12793 32.0191 5.49658 34.3838 8.90234 34.3838C9.77197 34.3838 10.644 34.2295 11.4868 33.9048Z" />
            <path d="M24.9517 25.4233C30.1353 25.4233 34.3525 20.6187 34.3525 14.7129C34.3525 8.80566 30.1353 4 24.9517 4C19.7686 4 15.5518 8.80566 15.5518 14.7129C15.5518 20.6187 19.7686 25.4233 24.9517 25.4233Z" />
            <path d="M41.187 28.0547H41.1875C41.9849 28.3193 42.7983 28.4458 43.6084 28.4458C47.3887 28.4458 51.0728 25.6943 52.4785 21.4658C53.2881 19.0317 53.2349 16.458 52.3286 14.2192C51.3804 11.8755 49.623 10.1743 47.3799 9.42871C45.1362 8.6831 42.71 8.99414 40.5474 10.3037C38.4814 11.5547 36.8984 13.5845 36.0898 16.0186C34.3833 21.1533 36.6699 26.5527 41.187 28.0547Z" />
            <path d="M60.9844 26.8047L60.9829 26.8033C57.4082 24.1626 52.062 25.3072 49.0644 29.356C46.0698 33.4068 46.5381 38.8526 50.1074 41.4951C51.4092 42.4595 52.9472 42.9204 54.5215 42.9204C57.2651 42.9204 60.1196 41.52 62.0278 38.9448C65.0219 34.8941 64.5542 29.4483 60.9844 26.8047Z" />
            </g>
    </symbol>
    <symbol id="instagram" viewBox="0 0 40 40">
        <path  d="M7.91666 40H32.0834C36.4483 40 40 36.4483 40 32.0834V7.91666C40 3.55166 36.4483 0 32.0834 0H7.91666C3.55166 0 0 3.55166 0 7.91666V32.0834C0 36.4483 3.55166 40 7.91666 40ZM2.5 7.91666C2.5 4.93 4.93 2.5 7.91666 2.5H32.0834C35.07 2.5 37.5 4.93 37.5 7.91666V32.0834C37.5 35.07 35.07 37.5 32.0834 37.5H7.91666C4.93 37.5 2.5 35.07 2.5 32.0834V7.91666Z" />
        <path d="M20 30.2167C25.6333 30.2167 30.2167 25.6334 30.2167 20.0001C30.2167 14.3667 25.6333 9.78336 20 9.78336C14.3667 9.78336 9.78333 14.3667 9.78333 20.0001C9.78333 25.6334 14.3667 30.2167 20 30.2167ZM20 12.2834C24.255 12.2834 27.7167 15.745 27.7167 20.0001C27.7167 24.255 24.255 27.7167 20 27.7167C15.745 27.7167 12.2833 24.255 12.2833 20.0001C12.2833 15.745 15.745 12.2834 20 12.2834Z" />
        <path d="M30.5966 12.2698C32.24 12.2698 33.4783 11.0366 33.4783 9.40152C33.4783 7.69654 32.175 6.5332 30.5983 6.5332C28.955 6.5332 27.7167 7.76654 27.7167 9.40152C27.7167 11.1032 29.0133 12.2698 30.5966 12.2698ZM30.8916 9.12656C31.4183 9.59152 30.2166 10.1566 30.2166 9.4032C30.2166 8.9532 30.8283 9.06984 30.8916 9.12656Z"/>
    </symbol>
    <symbol id="vk" viewBox="0 0 40 40">
        <g clip-path="url(#clip0)">
            <path d="M20.2417 32.5C26.0283 32.5 23.965 28.8366 24.4117 27.7834C24.405 26.9966 24.3983 26.24 24.425 25.78C24.7917 25.8834 25.6566 26.3217 27.4434 28.0583C30.2017 30.8417 30.9066 32.5 33.135 32.5H37.2366C38.5366 32.5 39.2134 31.9617 39.5517 31.51C39.8783 31.0734 40.1983 30.3066 39.8483 29.1134C38.9334 26.24 33.5966 21.2783 33.265 20.755C33.315 20.6583 33.395 20.53 33.4366 20.4634H33.4334C34.4866 19.0717 38.5066 13.0483 39.0983 10.6383C39.1 10.635 39.1017 10.63 39.1017 10.625C39.4217 9.52496 39.1283 8.81168 38.825 8.40832C38.3683 7.805 37.6417 7.5 36.66 7.5H32.5583C31.185 7.5 30.1434 8.19168 29.6166 9.45336C28.735 11.695 26.2583 16.305 24.4017 17.9366C24.345 15.625 24.3834 13.86 24.4134 12.5483C24.4734 9.99 24.6666 7.5 22.0117 7.5H15.565C13.9017 7.5 12.31 9.31664 14.0334 11.4734C15.54 13.3634 14.575 14.4166 14.9 19.66C13.6334 18.3017 11.38 14.6334 9.78664 9.94496C9.34 8.67664 8.66336 7.50166 6.75834 7.50166H2.65666C0.993336 7.50166 0 8.40832 0 9.92664C0 13.3366 7.54834 32.5 20.2417 32.5ZM6.75834 10.0017C7.12 10.0017 7.15666 10.0017 7.425 10.7634C9.05664 15.5683 12.7166 22.6783 15.39 22.6783C17.3983 22.6783 17.3983 20.62 17.3983 19.845L17.3966 13.675C17.2866 11.6334 16.5434 10.6166 16.055 10L21.9017 10.0066C21.905 10.035 21.8683 16.8317 21.9183 18.4783C21.9183 20.8166 23.775 22.1566 26.6734 19.2234C29.7317 15.7717 31.8466 10.6117 31.9317 10.4017C32.0566 10.1017 32.165 10 32.5583 10H36.66H36.6766C36.675 10.005 36.675 10.01 36.6734 10.015C36.2983 11.765 32.5966 17.3417 31.3583 19.0734C31.3383 19.1 31.32 19.1283 31.3017 19.1566C30.7566 20.0466 30.3134 21.03 31.3766 22.4134H31.3783C31.475 22.53 31.7266 22.8034 32.0934 23.1834C33.2334 24.36 37.1434 28.3834 37.49 29.9834C37.26 30.02 37.01 29.9934 33.135 30.0017C32.31 30.0017 31.665 28.7683 29.2034 26.285C26.99 24.1317 25.5534 23.2517 24.245 23.2517C21.705 23.2517 21.89 25.3134 21.9134 27.8066C21.9217 30.51 21.905 29.655 21.9234 29.825C21.775 29.8834 21.35 30 20.2417 30C9.66664 30 2.78 13.215 2.515 10.0066C2.60666 9.99832 3.86834 10.0034 6.75834 10.0017Z" />
        </g>
    </symbol>
    <symbol id="telegram" viewBox="0 0 40 40">
        <g clip-path="url(#clip0)">
            <path d="M0.691767 18.66L10.4734 23.535C10.8518 23.7216 11.2984 23.7083 11.6601 23.4966L20.3668 18.435L15.0968 23.105C14.8284 23.3433 14.6751 23.6833 14.6751 24.0416V35.4166C14.6751 36.6166 16.2068 37.1216 16.9251 36.1683L21.1534 30.5466L31.6101 36.5016C32.3434 36.9233 33.2834 36.5 33.4534 35.6616L39.9751 3.16164C40.1701 2.18497 39.1984 1.38831 38.2951 1.75164L0.795101 16.3766C-0.211566 16.77 -0.276566 18.1783 0.691767 18.66ZM37.0751 4.91164L31.3434 33.4733L21.4351 27.83C20.8951 27.5216 20.2001 27.6583 19.8168 28.165L17.1751 31.6766V24.6033L31.4268 11.9766C32.5551 10.9783 31.2584 9.20331 29.9701 9.95997L10.9868 20.9966L4.33343 17.6816L37.0751 4.91164Z" />
        </g>
    </symbol>
    <symbol id="button-arrow" viewBox="0 0 13 23">
        <path d="M2 -1.90735e-06C2.13161 -0.000762939 2.26207 0.0244617 2.38391 0.0742264C2.50574 0.123991 2.61656 0.197317 2.71 0.289999L11.29 8.88C11.8518 9.4425 12.1674 10.205 12.1674 11C12.1674 11.795 11.8518 12.5575 11.29 13.12L2.71 21.71C2.52169 21.8983 2.2663 22.0041 2 22.0041C1.7337 22.0041 1.4783 21.8983 1.29 21.71C1.1017 21.5217 0.995907 21.2663 0.995907 21C0.995907 20.7337 1.1017 20.4783 1.29 20.29L9.88 11.71C9.97373 11.617 10.0481 11.5064 10.0989 11.3846C10.1497 11.2627 10.1758 11.132 10.1758 11C10.1758 10.868 10.1497 10.7373 10.0989 10.6154C10.0481 10.4936 9.97373 10.383 9.88 10.29L1.29 1.71C1.19627 1.61703 1.12187 1.50643 1.07111 1.38457C1.02034 1.26272 0.9942 1.13201 0.9942 0.999998C0.9942 0.867987 1.02034 0.73728 1.07111 0.615421C1.12187 0.493563 1.19627 0.382961 1.29 0.289999C1.38344 0.197317 1.49425 0.123991 1.61609 0.0742264C1.73793 0.0244617 1.86839 -0.000762939 2 -1.90735e-06Z" />
    </symbol>
    <symbol id="card-arrow" viewBox="0 0 231 16">
        <path d="M230.707 8.70711C231.098 8.31658 231.098 7.68342 230.707 7.29289L224.343 0.928932C223.953 0.538408 223.319 0.538408 222.929 0.928932C222.538 1.31946 222.538 1.95262 222.929 2.34315L228.586 8L222.929 13.6569C222.538 14.0474 222.538 14.6805 222.929 15.0711C223.319 15.4616 223.953 15.4616 224.343 15.0711L230.707 8.70711ZM0 9H230V7H0V9Z" fill="white"/>
    </symbol>
    <symbol id="icon-list" viewBox="0 0 56 56">
        <circle cx="28" cy="28" r="28" fill="#BEE7E8"/>
        <path d="M37.6776 19C37.3729 18.9999 37.0711 19.0599 36.7895 19.1767C36.508 19.2935 36.2524 19.4647 36.0372 19.6805L25.2919 30.4244L19.967 25.0991C19.7516 24.8828 19.4956 24.7111 19.2137 24.5939C18.9318 24.4766 18.6295 24.4161 18.3242 24.4158C18.0189 24.4155 17.7166 24.4754 17.4344 24.5921C17.1523 24.7088 16.896 24.88 16.6801 25.0958C16.4642 25.3117 16.293 25.5681 16.1763 25.8502C16.0596 26.1323 15.9997 26.4347 16 26.74C16.0003 27.0453 16.0608 27.3476 16.1781 27.6295C16.2953 27.9114 16.467 28.1674 16.6834 28.3828L23.65 35.35C23.8656 35.5657 24.1215 35.7368 24.4033 35.8536C24.685 35.9703 24.9869 36.0304 25.2919 36.0304C25.5968 36.0304 25.8988 35.9703 26.1805 35.8536C26.4622 35.7368 26.7182 35.5657 26.9337 35.35L39.3195 22.9642C39.6443 22.6395 39.8656 22.2258 39.9553 21.7753C40.045 21.3248 39.9991 20.8578 39.8233 20.4334C39.6475 20.0091 39.3499 19.6464 38.9679 19.3912C38.586 19.1361 38.1369 18.9999 37.6776 19Z" fill="white"/>
    </symbol>
    <symbol id="cross" viewBox="0 0 24 24">
        <path d="M13.5374 11.9981L23.6775 1.86893C23.8828 1.66362 23.9981 1.38515 23.9981 1.0948C23.9981 0.804438 23.8828 0.525972 23.6775 0.320658C23.4722 0.115344 23.1937 0 22.9033 0C22.613 0 22.3345 0.115344 22.1292 0.320658L12 10.4608L1.87079 0.320658C1.66548 0.115344 1.38701 -2.16333e-09 1.09666 0C0.806299 2.16333e-09 0.527833 0.115344 0.322519 0.320658C0.117205 0.525972 0.00186077 0.804438 0.00186076 1.0948C0.00186076 1.38515 0.117205 1.66362 0.322519 1.86893L10.4626 11.9981L0.322519 22.1273C0.220324 22.2287 0.139209 22.3493 0.0838545 22.4822C0.0284997 22.615 0 22.7575 0 22.9015C0 23.0454 0.0284997 23.1879 0.0838545 23.3208C0.139209 23.4537 0.220324 23.5743 0.322519 23.6756C0.42388 23.7778 0.544472 23.8589 0.677339 23.9143C0.810206 23.9696 0.952719 23.9981 1.09666 23.9981C1.24059 23.9981 1.38311 23.9696 1.51597 23.9143C1.64884 23.8589 1.76943 23.7778 1.87079 23.6756L12 13.5355L22.1292 23.6756C22.2306 23.7778 22.3512 23.8589 22.484 23.9143C22.6169 23.9696 22.7594 23.9981 22.9033 23.9981C23.0473 23.9981 23.1898 23.9696 23.3227 23.9143C23.4555 23.8589 23.5761 23.7778 23.6775 23.6756C23.7797 23.5743 23.8608 23.4537 23.9161 23.3208C23.9715 23.1879 24 23.0454 24 22.9015C24 22.7575 23.9715 22.615 23.9161 22.4822C23.8608 22.3493 23.7797 22.2287 23.6775 22.1273L13.5374 11.9981Z"/>
    </symbol>
    </svg>